<svg xmlns="http://www.w3.org/2000/svg" width="231.188" height="47.437" viewBox="0 0 231.188 47.437"><defs><style>.a,.b,.c{fill:#fff;}.b,.c{stroke:#fff;}.b{stroke-width:0.668px;}.c{stroke-width:0.501px;}.d{fill:rgba(255,255,255,0.94);font-size:34px;font-family:Rubik-Regular, Rubik;}</style></defs><g transform="translate(517.95 -134.013)"><g transform="translate(-517.95 134.013)"><path class="a" d="M-116.819,47.99c.182.02.121,1.162.267,3.108a18.786,18.786,0,0,0,1.96,7.471,12.172,12.172,0,0,0,5.774,5.438l.163.069a13.645,13.645,0,0,0,8.277.528,20.47,20.47,0,0,0,6.753-3.1c1.536-1.039,2.348-1.76,2.473-1.635.089.089-.517,1.018-1.962,2.294a17.935,17.935,0,0,1-6.914,3.8,14.288,14.288,0,0,1-9.235-.427l-.188-.08a13.008,13.008,0,0,1-6.414-6.244,17.031,17.031,0,0,1-1.544-8.1c.1-2.023.463-3.132.588-3.118Z" transform="translate(160.037 -19.175)"/><g transform="translate(14.816 0)"><path class="a" d="M-41.209,43.536c-.131.079-1.032-1.077-2.223-3.115a60.113,60.113,0,0,1-3.954-8.312c-2.637-6.73-3.793-12.454-3.544-12.525.31-.089,2.041,5.474,4.633,12.1,1.366,3.49,2.525,6.072,3.6,8.354.989,2.109,1.638,3.412,1.492,3.5Z" transform="translate(83.422 -10.891)"/><path class="a" d="M-60.021,25.571c-.009.145-1.271.177-3.3.214-2.256.042-4.592.083-7.907.234-6.173.281-11.187.745-11.223.441-.03-.254,4.939-1.177,11.177-1.46a69.182,69.182,0,0,1,7.973.064c2.038.147,3.287.37,3.278.506Z" transform="translate(92.514 -12.432)"/><path class="a" d="M-66.914,45.656c-.122-.078.311-1.059,1.26-2.5a35.692,35.692,0,0,1,4.262-5.186c3.692-3.779,7.224-6.157,7.376-5.976.1.119-.628.894-1.849,2.09-1.141,1.117-3.014,2.89-4.741,4.654-1.916,1.957-3.239,3.468-4.426,4.88-1.086,1.291-1.747,2.121-1.881,2.035Z" transform="translate(88.034 -14.473)"/><path class="a" d="M-95.848,54.011c.031-.23,2.682-.175,5.917.305s5.785,1.308,5.709,1.6c-.058.224-2.664-.169-5.852-.641C-93.282,54.8-95.889,54.311-95.848,54.011Z" transform="translate(96.383 -20.794)"/><path class="a" d="M-81.579,42.915C-81.81,43-83,40.673-84.4,36.864a67.407,67.407,0,0,1-1.659-7.643q-.489,1.118-1.043,2.246A71.857,71.857,0,0,1-93.32,41.68c-1.791,2.466-3.067,3.907-3.253,3.776-.2-.144.777-1.811,2.569-4.429,1.528-2.233,4.638-6.527,6.8-10.217q.639-1.089,1.2-2.156c1.044,2.926,2.06,5.593,2.857,7.8,1.094,3.863,1.833,6.357,1.563,6.458Z" transform="translate(96.599 -13.51)"/><circle class="b" cx="4.479" cy="4.479" r="4.479" transform="translate(12.902 30.544)"/><path class="a" d="M-44.6,24.632a.019.019,0,0,1,0-.015h0a.094.094,0,0,1,.018-.018.7.7,0,0,1,.071-.046h0c.067-.04.143-.082.257-.158h0a3.388,3.388,0,0,0,.8-.751h0a8.139,8.139,0,0,0,1.593-4.588l-.8-.067c-.893-.076-1.722-.151-2.516-.234a15.372,15.372,0,0,0-2.7-.023,6.2,6.2,0,0,0-1.15.2c-.594.173-.88.4-.919.362s.174-.374.811-.655a5.061,5.061,0,0,1,1.2-.347,12.5,12.5,0,0,1,2.812-.125c.861.133,1.77.285,2.742.453l.872.151c-.122,2.423-.67,4.055-1.657,5.126h0a2.747,2.747,0,0,1-1,.682h0a1.206,1.206,0,0,1-.318.076h0a.344.344,0,0,1-.089,0,.084.084,0,0,1-.025-.009h0a.021.021,0,0,1-.011-.013Z" transform="translate(83.127 -10.475)"/><path class="a" d="M-83.635,22.96c-.163.06-.849-1.391-1.53-3.238s-1.1-3.4-.94-3.456.849,1.391,1.53,3.238,1.1,3.4.94,3.456Z" transform="translate(93.58 -9.933)"/><path class="c" d="M-149.657,18.778s-.292-.562.4-.7a40.734,40.734,0,0,1,6.267.022s5.638-.606,5.211.854c0,0-4.9-.741-7.974.449Z" transform="translate(151.582 -13.097)"/><text class="d" transform="translate(43.372 32)"><tspan x="0" y="0">Road Bikes</tspan></text></g><path class="a" d="M-116.819,47.99c.182.02.121,1.162.267,3.108a18.786,18.786,0,0,0,1.96,7.471,12.172,12.172,0,0,0,5.774,5.438l.163.069a13.645,13.645,0,0,0,8.277.528,20.47,20.47,0,0,0,6.753-3.1c1.536-1.039,2.348-1.76,2.473-1.635.089.089-.517,1.018-1.962,2.294a17.935,17.935,0,0,1-6.914,3.8,14.288,14.288,0,0,1-9.235-.427l-.188-.08a13.008,13.008,0,0,1-6.414-6.244,17.031,17.031,0,0,1-1.544-8.1c.1-2.023.463-3.132.588-3.118Z" transform="translate(117.43 -19.093)"/></g></g></svg>