<svg xmlns="http://www.w3.org/2000/svg" width="45" height="45" viewBox="0 0 39 24.096"><defs><style>.a{fill:#fff;}</style></defs><g transform="translate(-43.615 -87.828)"><g transform="translate(43.615 87.828)"><g transform="translate(0 0)"><path class="a" d="M21.448,22.176a7.24,7.24,0,0,1,.151,1.759,10.634,10.634,0,0,0,1.109,4.229,6.89,6.89,0,0,0,3.268,3.078l.092.039a7.724,7.724,0,0,0,4.685.3,11.587,11.587,0,0,0,3.823-1.755c.869-.588,1.329-1,1.4-.925.05.05-.293.576-1.111,1.3a10.152,10.152,0,0,1-3.914,2.151,8.088,8.088,0,0,1-5.227-.242l-.106-.045a7.363,7.363,0,0,1-3.631-3.534,9.64,9.64,0,0,1-.874-4.585,3.739,3.739,0,0,1,.333-1.765Z" transform="translate(3.019 -8.622)"/><path class="a" d="M23.936,30.41a6.008,6.008,0,0,1-1.258-1.763,34.027,34.027,0,0,1-2.238-4.7,27.612,27.612,0,0,1-2.006-7.09c.175-.05,1.155,3.1,2.622,6.849.773,1.975,1.429,3.437,2.038,4.729a8.658,8.658,0,0,1,.845,1.981Z" transform="translate(8.348 -14.689)"/><path class="a" d="M25.186,18.226a6.9,6.9,0,0,1-1.868.121c-1.277.024-2.6.047-4.476.132-3.494.159-6.332.422-6.353.25a25.489,25.489,0,0,1,6.327-.826,39.16,39.16,0,0,1,4.513.036,5.492,5.492,0,0,1,1.855.286Z" transform="translate(1.596 -13.546)"/><path class="a" d="M15.421,26.924c-.069-.044.176-.6.713-1.415a20.2,20.2,0,0,1,2.412-2.936,16.729,16.729,0,0,1,4.175-3.383c.057.067-.355.506-1.047,1.183-.646.632-1.706,1.636-2.684,2.634-1.085,1.108-1.833,1.963-2.505,2.762-.615.731-.989,1.2-1.065,1.152Z" transform="translate(4.923 -12.03)"/><path class="a" d="M9.969,23.38a10.211,10.211,0,0,1,3.349.173c1.831.272,3.275.74,3.232.906a15.608,15.608,0,0,1-3.312-.363c-1.816-.269-3.292-.546-3.268-.715Z" transform="translate(-1.276 -7.335)"/><path class="a" d="M18.329,26.631c-.131.048-.8-1.269-1.6-3.425a38.154,38.154,0,0,1-.939-4.326q-.277.633-.59,1.271a40.675,40.675,0,0,1-3.52,5.781c-1.014,1.4-1.736,2.212-1.841,2.137s.44-1.025,1.454-2.507c.865-1.264,2.625-3.695,3.849-5.783q.362-.616.679-1.22c.591,1.656,1.166,3.166,1.617,4.415.619,2.187,1.038,3.6.885,3.656Z" transform="translate(-1.437 -12.744)"/><circle class="a" cx="2.535" cy="2.535" r="2.535" transform="translate(15.693 14.532)"/><path class="a" d="M21.634,20.255a.011.011,0,0,1,0-.008h0l.01-.01a.4.4,0,0,1,.04-.026h0c.038-.023.081-.046.145-.089h0a1.918,1.918,0,0,0,.453-.425h0a4.607,4.607,0,0,0,.9-2.6l-.453-.038c-.505-.043-.975-.085-1.424-.132a8.7,8.7,0,0,0-1.528-.013,3.509,3.509,0,0,0-.651.113c-.336.1-.5.226-.52.2s.1-.212.459-.371a2.865,2.865,0,0,1,.679-.2,7.076,7.076,0,0,1,1.592-.071c.487.075,1,.161,1.552.256l.494.085a4.467,4.467,0,0,1-.938,2.9h0a1.555,1.555,0,0,1-.566.386h0a.683.683,0,0,1-.18.043h0a.2.2,0,0,1-.05,0l-.014-.005h0a.012.012,0,0,1-.006-.007Z" transform="translate(8.564 -14.999)"/><path class="a" d="M13.213,20.017a5.878,5.878,0,0,1-.866-1.833,5.958,5.958,0,0,1-.532-1.956,5.956,5.956,0,0,1,.866,1.833A5.958,5.958,0,0,1,13.213,20.017Z" transform="translate(0.806 -15.4)"/><path class="a" d="M10.355,16.3s-.165-.318.226-.4a23.057,23.057,0,0,1,3.547.012s3.191-.343,2.95.483a10.954,10.954,0,0,0-4.514.254Z" transform="translate(-0.876 -15.841)"/><path class="a" d="M10.175,22.2a7.239,7.239,0,0,1,.151,1.759,10.634,10.634,0,0,0,1.109,4.229A6.89,6.89,0,0,0,14.7,31.264l.092.039a7.724,7.724,0,0,0,4.685.3A11.587,11.587,0,0,0,23.3,29.847c.869-.588,1.329-1,1.4-.925.05.05-.293.576-1.111,1.3a10.152,10.152,0,0,1-3.914,2.151,8.088,8.088,0,0,1-5.227-.242l-.106-.045a7.363,7.363,0,0,1-3.631-3.534,9.64,9.64,0,0,1-.874-4.585,3.739,3.739,0,0,1,.333-1.765Z" transform="translate(-9.826 -8.598)"/></g></g></g></svg>