<svg xmlns="http://www.w3.org/2000/svg" width="33.139" height="32.3" viewBox="0 0 33.139 32.3"><defs><style>.a{fill:#f2f2f2;}</style></defs><path class="a" d="M14.04,67.786l1.642,1.642a1.768,1.768,0,0,0,2.507,0L32.568,55.057a1.768,1.768,0,0,0,0-2.507L18.189,38.171a1.768,1.768,0,0,0-2.507,0L14.04,39.813a1.777,1.777,0,0,0,.03,2.537l8.913,8.491H1.725A1.771,1.771,0,0,0-.05,52.616v2.367a1.771,1.771,0,0,0,1.775,1.775H22.982L14.07,65.249a1.764,1.764,0,0,0-.03,2.537Z" transform="translate(0.05 -37.65)"/></svg>