<svg xmlns="http://www.w3.org/2000/svg" width="33.139" height="32.3" viewBox="0 0 33.139 32.3"><defs><style>.a{fill:#f2f2f2;}</style></defs><path class="a" d="M19,67.786l-1.642,1.642a1.768,1.768,0,0,1-2.507,0L.471,55.057a1.768,1.768,0,0,1,0-2.507L14.85,38.171a1.768,1.768,0,0,1,2.507,0L19,39.813a1.777,1.777,0,0,1-.03,2.537l-8.913,8.491H31.314a1.771,1.771,0,0,1,1.775,1.775v2.367a1.771,1.771,0,0,1-1.775,1.775H10.057l8.913,8.491A1.764,1.764,0,0,1,19,67.786Z" transform="translate(0.05 -37.65)"/></svg>