<?xml version="1.0" encoding="UTF-8" standalone="no"?>
<!-- Created with Inkscape (http://www.inkscape.org/) -->

<svg
   xmlns:dc="http://purl.org/dc/elements/1.1/"
   xmlns:cc="http://creativecommons.org/ns#"
   xmlns:rdf="http://www.w3.org/1999/02/22-rdf-syntax-ns#"
   xmlns:svg="http://www.w3.org/2000/svg"
   xmlns="http://www.w3.org/2000/svg"
   xmlns:sodipodi="http://sodipodi.sourceforge.net/DTD/sodipodi-0.dtd"
   xmlns:inkscape="http://www.inkscape.org/namespaces/inkscape"
   width="210mm"
   height="297mm"
   viewBox="0 0 210 297"
   version="1.1"
   id="svg8"
   inkscape:version="0.92.4 (5da689c313, 2019-01-14)"
   sodipodi:docname="bike-illustration.svg">
  <defs
     id="defs2">
    <inkscape:path-effect
       effect="skeletal"
       id="path-effect893"
       is_visible="true"
       pattern="M 0,5 C 0,2.24 2.24,0 5,0 7.76,0 10,2.24 10,5 10,7.76 7.76,10 5,10 2.24,10 0,7.76 0,5 Z"
       copytype="single_stretched"
       prop_scale="0.26458333"
       scale_y_rel="false"
       spacing="0"
       normal_offset="0"
       tang_offset="0"
       prop_units="false"
       vertical_pattern="false"
       fuse_tolerance="0" />
    <inkscape:path-effect
       effect="skeletal"
       id="path-effect889"
       is_visible="true"
       pattern="M 0,5 C 0,2.24 2.24,0 5,0 7.76,0 10,2.24 10,5 10,7.76 7.76,10 5,10 2.24,10 0,7.76 0,5 Z"
       copytype="single_stretched"
       prop_scale="0.26458333"
       scale_y_rel="false"
       spacing="0"
       normal_offset="0"
       tang_offset="0"
       prop_units="false"
       vertical_pattern="false"
       fuse_tolerance="0" />
    <inkscape:path-effect
       effect="skeletal"
       id="path-effect881"
       is_visible="true"
       pattern="M 0,5 C 0,2.24 2.24,0 5,0 7.76,0 10,2.24 10,5 10,7.76 7.76,10 5,10 2.24,10 0,7.76 0,5 Z"
       copytype="single_stretched"
       prop_scale="0.26458333"
       scale_y_rel="false"
       spacing="0"
       normal_offset="0"
       tang_offset="0"
       prop_units="false"
       vertical_pattern="false"
       fuse_tolerance="0" />
    <inkscape:path-effect
       effect="skeletal"
       id="path-effect873"
       is_visible="true"
       pattern="M 0,5 C 0,2.24 2.24,0 5,0 7.76,0 10,2.24 10,5 10,7.76 7.76,10 5,10 2.24,10 0,7.76 0,5 Z"
       copytype="single_stretched"
       prop_scale="0.26458333"
       scale_y_rel="false"
       spacing="0"
       normal_offset="0"
       tang_offset="0"
       prop_units="false"
       vertical_pattern="false"
       fuse_tolerance="0" />
    <inkscape:path-effect
       effect="skeletal"
       id="path-effect865"
       is_visible="true"
       pattern="M 0,5 C 0,2.24 2.24,0 5,0 7.76,0 10,2.24 10,5 10,7.76 7.76,10 5,10 2.24,10 0,7.76 0,5 Z"
       copytype="single_stretched"
       prop_scale="0.26458333"
       scale_y_rel="false"
       spacing="0"
       normal_offset="0"
       tang_offset="0"
       prop_units="false"
       vertical_pattern="false"
       fuse_tolerance="0" />
    <inkscape:path-effect
       effect="skeletal"
       id="path-effect861"
       is_visible="true"
       pattern="M 0,5 C 0,2.24 2.24,0 5,0 7.76,0 10,2.24 10,5 10,7.76 7.76,10 5,10 2.24,10 0,7.76 0,5 Z"
       copytype="single_stretched"
       prop_scale="0.26458333"
       scale_y_rel="false"
       spacing="0"
       normal_offset="0"
       tang_offset="0"
       prop_units="false"
       vertical_pattern="false"
       fuse_tolerance="0" />
    <inkscape:path-effect
       effect="skeletal"
       id="path-effect853"
       is_visible="true"
       pattern="M 0,5 C 0,2.24 2.24,0 5,0 7.76,0 10,2.24 10,5 10,7.76 7.76,10 5,10 2.24,10 0,7.76 0,5 Z"
       copytype="single_stretched"
       prop_scale="0.26458333"
       scale_y_rel="false"
       spacing="0"
       normal_offset="0"
       tang_offset="0"
       prop_units="false"
       vertical_pattern="false"
       fuse_tolerance="0" />
    <inkscape:path-effect
       effect="skeletal"
       id="path-effect849"
       is_visible="true"
       pattern="M 0,5 C 0,2.24 2.24,0 5,0 7.76,0 10,2.24 10,5 10,7.76 7.76,10 5,10 2.24,10 0,7.76 0,5 Z"
       copytype="single_stretched"
       prop_scale="0.26458333"
       scale_y_rel="false"
       spacing="0"
       normal_offset="0"
       tang_offset="0"
       prop_units="false"
       vertical_pattern="false"
       fuse_tolerance="0" />
    <inkscape:path-effect
       effect="skeletal"
       id="path-effect845"
       is_visible="true"
       pattern="M 0,5 C 0,2.24 2.24,0 5,0 7.76,0 10,2.24 10,5 10,7.76 7.76,10 5,10 2.24,10 0,7.76 0,5 Z"
       copytype="single_stretched"
       prop_scale="0.26458333"
       scale_y_rel="false"
       spacing="0"
       normal_offset="0"
       tang_offset="0"
       prop_units="false"
       vertical_pattern="false"
       fuse_tolerance="0" />
    <inkscape:path-effect
       effect="skeletal"
       id="path-effect841"
       is_visible="true"
       pattern="M 0,5 C 0,2.24 2.24,0 5,0 7.76,0 10,2.24 10,5 10,7.76 7.76,10 5,10 2.24,10 0,7.76 0,5 Z"
       copytype="single_stretched"
       prop_scale="0.26458333"
       scale_y_rel="false"
       spacing="0"
       normal_offset="0"
       tang_offset="0"
       prop_units="false"
       vertical_pattern="false"
       fuse_tolerance="0" />
    <inkscape:path-effect
       effect="skeletal"
       id="path-effect837"
       is_visible="true"
       pattern="M 0,5 C 0,2.24 2.24,0 5,0 7.76,0 10,2.24 10,5 10,7.76 7.76,10 5,10 2.24,10 0,7.76 0,5 Z"
       copytype="single_stretched"
       prop_scale="0.26458333"
       scale_y_rel="false"
       spacing="0"
       normal_offset="0"
       tang_offset="0"
       prop_units="false"
       vertical_pattern="false"
       fuse_tolerance="0" />
    <inkscape:path-effect
       effect="skeletal"
       id="path-effect833"
       is_visible="true"
       pattern="M 0,5 C 0,2.24 2.24,0 5,0 7.76,0 10,2.24 10,5 10,7.76 7.76,10 5,10 2.24,10 0,7.76 0,5 Z"
       copytype="single_stretched"
       prop_scale="0.26458333"
       scale_y_rel="false"
       spacing="0"
       normal_offset="0"
       tang_offset="0"
       prop_units="false"
       vertical_pattern="false"
       fuse_tolerance="0" />
    <inkscape:path-effect
       effect="skeletal"
       id="path-effect829"
       is_visible="true"
       pattern="M 0,5 C 0,2.24 2.24,0 5,0 7.76,0 10,2.24 10,5 10,7.76 7.76,10 5,10 2.24,10 0,7.76 0,5 Z"
       copytype="single_stretched"
       prop_scale="0.26458333"
       scale_y_rel="false"
       spacing="0"
       normal_offset="0"
       tang_offset="0"
       prop_units="false"
       vertical_pattern="false"
       fuse_tolerance="0" />
  </defs>
  <sodipodi:namedview
     id="base"
     pagecolor="#ffffff"
     bordercolor="#666666"
     borderopacity="1.0"
     inkscape:pageopacity="0.0"
     inkscape:pageshadow="2"
     inkscape:zoom="0.24748737"
     inkscape:cx="-1256.408"
     inkscape:cy="-12.500875"
     inkscape:document-units="mm"
     inkscape:current-layer="layer2"
     showgrid="false"
     inkscape:window-width="1920"
     inkscape:window-height="1017"
     inkscape:window-x="-8"
     inkscape:window-y="-8"
     inkscape:window-maximized="1" />
  <metadata
     id="metadata5">
    <rdf:RDF>
      <cc:Work
         rdf:about="">
        <dc:format>image/svg+xml</dc:format>
        <dc:type
           rdf:resource="http://purl.org/dc/dcmitype/StillImage" />
        <dc:title></dc:title>
      </cc:Work>
    </rdf:RDF>
  </metadata>
  <g
     inkscape:groupmode="layer"
     id="layer2"
     inkscape:label="Layer 2">
    <g
       id="g907"
       transform="translate(452.22004,25.657875)">
      <path
         inkscape:original-d="m -379.52272,106.16956 10.69078,-40.090432"
         inkscape:path-effect="#path-effect829"
         inkscape:connector-curvature="0"
         id="path827"
         d="m -379.52272,106.16956 c -0.70559,-0.18816 1.11649,-9.321125 4.06714,-20.386087 2.95066,-11.064961 5.91805,-19.892512 6.62364,-19.704354 0.7056,0.188158 -1.11648,9.321125 -4.06714,20.386087 -2.95066,11.064961 -5.91805,19.892514 -6.62364,19.704354 z"
         style="fill:#000000;stroke:none;stroke-width:0.26458332px;stroke-linecap:butt;stroke-linejoin:miter;stroke-opacity:1" />
      <path
         inkscape:original-d="m -388.34261,158.28711 c 0,0 4.00902,0.80181 5.0781,-4.27631 l 23.51973,-91.940715"
         inkscape:path-effect="#path-effect833"
         inkscape:connector-curvature="0"
         id="path831"
         d="m -388.34241,158.28715 c -0.0146,-0.13118 0.72306,-0.34136 2.06171,-0.60694 1.05711,-0.50156 1.99233,-1.69953 2.34885,-3.82494 1.8518,-8.77995 5.63012,-24.58053 10.2253,-42.544 7.0003,-27.365511 13.25423,-49.422185 13.96177,-49.241186 0.70754,0.180999 -4.3968,22.524831 -11.39153,49.867086 -4.59235,17.95143 -8.86564,33.62532 -11.46086,42.22916 -0.6093,2.46872 -2.17163,3.82462 -3.50315,4.24923 -1.46015,0.0455 -2.22749,0.003 -2.24209,-0.12841 z"
         style="fill:#000000;stroke:none;stroke-width:0.26458332px;stroke-linecap:butt;stroke-linejoin:miter;stroke-opacity:1" />
      <path
         inkscape:original-d="m -334.08691,38.015828 c 0,0 -23.25246,5.078121 -25.39061,8.018084 l -12.02712,6.147201 c 0,0 -6.1472,-2.138157 -9.35444,1.069078"
         inkscape:path-effect="#path-effect837"
         inkscape:connector-curvature="0"
         id="path835"
         d="m -334.08694,38.015835 c 0.004,0.01698 0.001,0.03491 -0.007,0.05441 0,0 0,10e-7 0,10e-7 -0.008,0.01851 -0.0217,0.03816 -0.0408,0.05893 -0.0378,0.04124 -0.0969,0.08691 -0.17659,0.136831 0,0 0,0 0,0 l 0,0 c -0.15698,0.09838 -0.3941,0.213529 -0.7049,0.344171 l 0,0 0,0 c -0.60098,0.252623 -1.47991,0.564167 -2.59078,0.927774 l 0,0 c -2.11099,0.690972 -4.71332,1.460761 -8.09032,2.485756 l 0,0 c -2.49079,0.756543 -5.58187,1.684308 -8.47436,2.749869 l 0,0 c -1.02537,0.379276 -2.05901,0.776084 -3.01079,1.255628 -0.13084,0.08134 -0.25779,0.155986 -0.37918,0.225726 -0.53373,0.30665 -0.94281,0.509748 -1.08157,0.754794 -4.77069,2.368317 -9.25338,4.511507 -12.7839,6.139955 -1.2e-4,-4.2e-5 -1.2e-4,-4.3e-5 -1.2e-4,-4.3e-5 -0.016,-0.0016 -0.0322,-0.0032 -0.0482,-0.0047 -0.0426,-0.0041 -0.0852,-0.0082 -0.12776,-0.01219 -0.15952,-0.01501 -0.31943,-0.02948 -0.47844,-0.04371 -0.22558,-0.07872 -0.45404,-0.150318 -0.68182,-0.216527 -0.80442,-0.233014 -1.567,-0.390401 -2.28975,-0.485449 -3.62264,-0.404779 -5.56778,1.101036 -5.80566,0.863165 -0.0627,-0.06274 1.09201,-2.758599 5.92438,-2.613393 0.82749,0.01015 1.71054,0.09693 2.63886,0.278042 0.26351,0.05119 0.53388,0.11088 0.80868,0.18149 -0.0229,0.02643 -0.0459,0.05404 -0.0691,0.08322 -0.006,0.0078 -0.0124,0.01568 -0.0186,0.02373 -0.002,0.003 -0.005,0.0061 -0.007,0.0092 0,0 0,0 0,0 3.17577,-1.798847 7.08796,-3.946906 11.27046,-6.154405 0.52487,-0.667628 1.11747,-1.047045 1.62059,-1.268063 0.11429,-0.0502 0.22327,-0.09194 0.3249,-0.126887 1.11397,-0.553678 2.24401,-0.980102 3.31117,-1.351408 l 0,0 c 3.07614,-1.074931 6.16918,-1.871759 8.7661,-2.483797 l 0,0 c 3.35037,-0.790666 6.27678,-1.339531 8.36109,-1.648864 l 0,0 c 1.16206,-0.172483 2.09095,-0.274649 2.74488,-0.305452 l 0,0 0,0 c 0.33798,-0.01592 0.60195,-0.01274 0.78645,0.0099 l 0,0 c 0,0 0,0 0,0 0.0935,0.01149 0.16648,0.02798 0.21821,0.04953 0.026,0.01085 0.0467,0.02297 0.0618,0.03639 0,0 0,0 0,0 0.0159,0.01414 0.0257,0.0294 0.0294,0.04638 z"
         style="fill:#000000;stroke:none;stroke-width:0.26458332px;stroke-linecap:butt;stroke-linejoin:miter;stroke-opacity:1" />
      <path
         inkscape:original-d="m -359.47752,81.84803 39.02136,47.84124"
         inkscape:path-effect="#path-effect841"
         inkscape:connector-curvature="0"
         id="path839"
         d="m -359.47752,81.84803 c 0.56589,-0.461561 9.76594,9.880277 20.53584,23.08446 10.76989,13.20418 19.05141,24.29522 18.48552,24.75678 -0.56588,0.46156 -9.76594,-9.88028 -20.53583,-23.08446 -10.7699,-13.204181 -19.05142,-24.295219 -18.48553,-24.75678 z"
         style="fill:#000000;stroke:none;stroke-width:0.26458332px;stroke-linecap:butt;stroke-linejoin:miter;stroke-opacity:1" />
      <path
         inkscape:original-d="m -317.51619,129.68927 c 9.08717,-4.27631 7.75081,-9.08716 7.75081,-9.08716"
         inkscape:path-effect="#path-effect845"
         inkscape:connector-curvature="0"
         id="path843"
         d="m -317.51619,129.68927 c -0.37711,-0.80136 2.17131,-2.2199 4.44688,-4.41119 0.79078,-0.76149 1.34625,-1.4562 1.80498,-2.19427 l 0,0 c 0.45611,-0.7009 0.67719,-1.16697 0.90946,-1.67105 l 0,0 c 0.098,-0.21183 0.19647,-0.40854 0.28158,-0.54004 l 0,0 c 0.0456,-0.064 0.0951,-0.12253 0.14259,-0.16703 l 0,0 0,0 c 0.15699,-0.076 0.16516,-0.10116 0.16529,-0.1034 0,0 0,0 0,0 0,0 0,0 0,0 0,0 0,0 0,0 0,0 0,0 0,0 0,0 0,0 0,0 2e-5,-2.4e-4 3e-5,-1.8e-4 3e-5,-1.8e-4 0,0 -2e-5,-6e-5 1.2e-4,1.4e-4 0,0 0,0 0,0 0,0 0,0 0,0 0,0 0,0 0,0 0,0 0,0 0,0 0,0 0,0 0,0 0.001,0.002 0.0213,0.0196 0.19309,0.0176 l 0,0 0,0 c 0.0647,0.0297 0.13059,0.0833 0.19668,0.16164 l 0,0 c 0.12774,0.14464 0.24828,0.37394 0.33217,0.67831 l 0,0 c 0.17078,0.62573 0.18138,1.54628 -0.17473,2.57544 l 0,0 c -0.38016,1.0618 -1.04603,2.13847 -2.0105,3.10852 -2.89113,2.90785 -6.07622,2.99475 -6.28764,2.54549 z"
         style="fill:#000000;stroke:none;stroke-width:0.26458332px;stroke-linecap:butt;stroke-linejoin:miter;stroke-opacity:1" />
      <path
         inkscape:original-d="m -355.73573,75.700831 43.03038,24.588799"
         inkscape:path-effect="#path-effect849"
         inkscape:connector-curvature="0"
         id="path847"
         d="m -355.73573,75.700831 c 0.36231,-0.634034 10.29516,4.359279 22.17154,11.145788 11.87639,6.78651 21.22115,12.80898 20.85885,13.443011 -0.36231,0.63404 -10.29516,-4.359275 -22.17155,-11.145785 -11.87638,-6.786509 -21.22115,-12.80898 -20.85884,-13.443014 z"
         style="fill:#000000;stroke:none;stroke-width:0.26458332px;stroke-linecap:butt;stroke-linejoin:miter;stroke-opacity:1" />
      <path
         transform="translate(-1.0690781,-1.3363476)"
         inkscape:original-d="m -311.63627,103.76413 1.87102,16.83812"
         inkscape:path-effect="#path-effect853"
         inkscape:connector-curvature="0"
         id="path851"
         d="m -311.63627,103.76413 c 0.72578,-0.0806 1.73393,3.62564 2.25033,8.27296 0.51641,4.64733 0.34647,8.48452 -0.37931,8.56517 -0.72578,0.0806 -1.73393,-3.62564 -2.25033,-8.27297 -0.51641,-4.64732 -0.34647,-8.48451 0.37931,-8.56516 z"
         style="fill:#000000;stroke:none;stroke-width:0.26458332px;stroke-linecap:butt;stroke-linejoin:miter;stroke-opacity:1" />
      <path
         inkscape:original-d="m -319.92162,89.598845 c 0,0 16.57072,-3.741774 20.31248,-16.03617"
         inkscape:path-effect="#path-effect861"
         inkscape:connector-curvature="0"
         id="path859"
         d="m -319.92157,89.598834 c -0.2142,-0.549877 3.28116,-2.447354 8.23978,-4.557291 0,0 0,0 0,0 1.06269,-0.618354 2.16825,-1.309985 3.25843,-2.085231 1.18715,-0.844201 2.23811,-1.703569 3.18235,-2.592356 0,0 0,-10e-7 0,-10e-7 3.65112,-3.417686 5.07663,-6.97027 5.63187,-6.801283 0.46245,0.140744 0.18742,4.271778 -3.86064,8.571166 0,0 0,10e-7 0,10e-7 -1.00733,1.064143 -2.17442,2.077124 -3.49863,3.014148 -1.2204,0.863574 -2.46235,1.583477 -3.65972,2.178214 0,0 0,0 0,0 -5.20199,1.847304 -9.07899,2.823154 -9.29344,2.272633 z"
         style="fill:#000000;stroke:none;stroke-width:0.26458332px;stroke-linecap:butt;stroke-linejoin:miter;stroke-opacity:1" />
      <path
         inkscape:original-d="m -308.96356,61.802816 c 0,0 4.00902,-0.801809 11.75986,0.267269 0,0 8.55261,2.672695 12.56165,0"
         inkscape:path-effect="#path-effect865"
         inkscape:connector-curvature="0"
         id="path863"
         d="m -308.96336,61.802776 c -0.016,-0.08049 0.0382,-0.172708 0.16087,-0.269563 0,0 0,0 0,0 0.12092,-0.09737 0.30543,-0.198405 0.55131,-0.299692 0,0 0,0 0,0 0.51841,-0.213089 1.27386,-0.412129 2.25642,-0.56388 2.29839,-0.352273 5.35397,-0.391975 9.01673,0.09974 0.17651,0.03616 0.35383,0.0729 0.53199,0.110253 1.49675,0.313803 2.92503,0.643858 4.23874,0.975177 1.49956,0.249403 2.68255,0.371395 3.83053,0.386017 2.22264,0.0055 3.52509,-0.485209 3.73473,-0.17075 0.19756,0.296344 -0.87509,1.609571 -3.55817,2.082941 -1.28784,0.236766 -2.75098,0.290924 -4.41551,0.140584 -1.33577,-0.223829 -2.7788,-0.495406 -4.28038,-0.809847 -0.17873,-0.03743 -0.35648,-0.07508 -0.53318,-0.112943 -3.95532,-0.560838 -5.83906,-0.725156 -8.50802,-0.970986 -0.90602,-0.08381 -1.71636,-0.16514 -2.20691,-0.249174 0,0 0,0 0,0 -0.24843,-0.04276 -0.44706,-0.09107 -0.58394,-0.146398 0,0 0,0 0,0 -0.13769,-0.05163 -0.22021,-0.125972 -0.23521,-0.201481 z"
         style="fill:#000000;stroke:none;stroke-width:0.26458332px;stroke-linecap:butt;stroke-linejoin:miter;stroke-opacity:1" />
      <path
         inkscape:original-d="m -261.92413,151.60537 c 11.49259,-4.54358 25.12333,-53.988438 -2.67269,-60.402906 -27.79604,-6.414471 -32.33963,26.192406 -32.33963,26.192406 0,0 -6.68173,32.33962 15.76891,38.21955"
         inkscape:path-effect="#path-effect873"
         inkscape:connector-curvature="0"
         id="path871"
         d="m -261.92413,151.60537 c -0.0629,-0.15898 1.7976,-1.01254 3.94442,-3.93671 1.27335,-1.75847 2.4678,-3.87406 3.73272,-6.81923 2.08795,-4.87342 3.98794,-11.18318 4.66162,-18.84949 0.48793,-5.76273 0.3548,-12.70343 -2.38453,-18.79702 -1.12761,-2.52252 -2.74774,-4.930681 -4.90295,-6.783119 -2.20377,-1.915294 -4.99906,-3.243151 -8.01897,-3.938992 -3.26792,-0.731692 -6.76776,-1.001072 -10.12407,-0.499887 -2.03714,0.304197 -3.98081,0.886387 -5.76721,1.785916 -3.91984,1.919163 -7.03492,5.225802 -9.31351,8.797382 -2.0377,3.20952 -3.48375,6.70912 -4.51883,10.16419 -0.35096,1.1754 -0.65264,2.34339 -0.89862,3.50666 -0.0703,0.33256 -0.13555,0.66133 -0.19348,0.98764 l 0,0 0,0 0,0 c -0.0168,0.0947 -0.0328,0.18767 -0.0478,0.2791 0,0 0,10e-6 0,10e-6 0,0 0,0 0,0 -0.004,0.0239 -0.008,0.0479 -0.0114,0.0719 -0.001,0.008 -0.003,0.017 -0.004,0.0254 -0.002,0.008 -0.004,0.0169 -0.005,0.0253 -0.005,0.0239 -0.01,0.0479 -0.0147,0.072 -0.0188,0.0929 -0.0369,0.1863 -0.0547,0.2801 l 0,0 c 0,0 0,0 0,0 -0.0638,0.33399 -0.12231,0.67061 -0.17759,1.00821 l 0,0 c -0.20173,1.23222 -0.3558,2.45937 -0.47419,3.66903 -0.40076,4.11645 -0.39078,7.94721 0.0218,11.53093 0.60227,5.13762 1.94645,9.2681 4.0116,12.56625 4.77206,7.69 11.36782,8.58999 11.2962,8.86345 0.23326,-0.89063 -6.3804,0.93168 -12.56664,-8.02966 -2.34788,-3.4264 -3.97802,-7.79785 -4.72901,-13.14341 -0.5314,-3.72849 -0.63845,-7.72148 -0.30154,-11.98711 0.0985,-1.25507 0.23609,-2.53486 0.42531,-3.82808 l 0,0 c 0.0518,-0.35423 0.10804,-0.71231 0.17077,-1.07284 0,0 0,-1e-5 0,-1e-5 l 0,0 c 0.0155,-0.089 0.0315,-0.17845 0.0483,-0.26831 0.004,-0.0232 0.009,-0.0465 0.0132,-0.0698 0.002,-0.008 0.003,-0.0164 0.005,-0.0246 0.001,-0.008 0.002,-0.0166 0.003,-0.0248 0.003,-0.0234 0.007,-0.0469 0.01,-0.0704 0,0 0,0 0,0 0,0 0,-1e-5 0,-1e-5 0.0131,-0.0911 0.0269,-0.1806 0.041,-0.26845 l 0,0 0,-10e-6 0,0 c 0.0579,-0.35875 0.12267,-0.71444 0.19191,-1.06809 0.24221,-1.23746 0.54264,-2.47488 0.89488,-3.71368 1.03219,-3.64221 2.53021,-7.36665 4.69144,-10.84524 2.41818,-3.909504 5.85384,-7.552907 10.31326,-9.79546 2.06339,-1.012532 4.26733,-1.676034 6.54507,-2.027187 3.75455,-0.57883 7.5807,-0.28995 11.10952,0.546846 3.39761,0.785124 6.55982,2.329101 9.11446,4.562474 2.46985,2.179976 4.27554,4.90341 5.48402,7.725657 2.87818,6.75914 2.91433,14.05375 2.23422,19.99881 -0.87889,7.89791 -3.07282,14.35501 -5.45287,19.24476 -1.43082,2.94608 -2.84103,5.10738 -4.29685,6.81257 -2.53309,3.0036 -4.62978,3.52798 -4.70529,3.33698 z"
         style="fill:#000000;stroke:none;stroke-width:0.26458332px;stroke-linecap:butt;stroke-linejoin:miter;stroke-opacity:1" />
      <path
         inkscape:original-d="m -402.24064,199.17935 c 9.88899,-2.40543 32.33962,-1.06908 45.43584,-39.02135"
         inkscape:path-effect="#path-effect881"
         inkscape:connector-curvature="0"
         id="path879"
         d="m -402.24064,199.17935 c -0.0873,-0.35905 3.61858,-1.22769 9.22871,-2.69713 3.35428,-0.87906 7.60297,-2.25102 11.67333,-4.58806 2.53672,-1.44907 5.01286,-3.26588 7.38513,-5.46444 1.81942,-1.68619 3.45108,-3.47972 4.90068,-5.29419 0,0 0,0 0,0 4.22657,-5.28641 7.12487,-10.92979 8.97873,-14.73963 1.9115,-3.92831 2.94165,-6.35095 3.26926,-6.2379 0.009,0.003 -1.2572,10.83315 -10.21937,22.56234 0,0 0,0 0,0 -1.48746,1.9451 -3.19498,3.85993 -5.1313,5.65124 -2.52321,2.33424 -5.20195,4.24336 -7.95679,5.73174 -4.45355,2.39441 -8.9537,3.60038 -12.49786,4.22348 -5.87521,1.03605 -9.62026,0.89475 -9.63052,0.85255 z"
         style="fill:#000000;stroke:none;stroke-width:0.26458332px;stroke-linecap:butt;stroke-linejoin:miter;stroke-opacity:1" />
      <path
         inkscape:original-d="m -436.98567,174.32329 c 0,0 -15.23436,-44.09948 32.3396,-59.60111"
         inkscape:path-effect="#path-effect893"
         inkscape:connector-curvature="0"
         id="path891"
         d="m -436.98868,174.31451 c -0.0182,0.006 -0.0392,0.004 -0.0628,-0.007 0,0 0,0 0,0 -0.0249,-0.0159 -0.0531,-0.0425 -0.0845,-0.0795 l 0,0 0,0 0,0 c -0.0626,-0.074 -0.13691,-0.18892 -0.22185,-0.34494 0,0 0,0 0,0 l 0,0 c -0.16844,-0.30943 -0.37365,-0.77086 -0.60327,-1.38707 l 0,0 c -0.44665,-1.19861 -0.97363,-2.94526 -1.43447,-5.19958 l 0,0 c -0.85582,-4.17912 -1.51784,-10.27701 -0.47423,-17.17587 0.66465,-4.38995 2.07627,-9.03799 4.46667,-13.51335 1.34446,-2.51712 2.91072,-4.81349 4.64599,-6.86802 0,0 1e-5,0 1e-5,0 5.71666,-6.72281 12.78988,-10.56195 17.7271,-12.62544 5.07291,-2.12021 8.30937,-2.62105 8.384,-2.392 0.0983,0.30164 -2.94254,1.45117 -7.67202,3.91434 -4.60668,2.39922 -11.2512,6.38753 -16.45224,12.75953 0,0 0,0 0,0 -1.59472,1.93969 -3.04239,4.09676 -4.30114,6.45628 -2.23642,4.19213 -3.6238,8.54535 -4.36631,12.67058 -1.1705,6.50059 -0.85796,12.41126 -0.4164,16.53313 l 0,0 c 0.2416,2.2476 0.521,3.96382 0.71576,5.22518 l 0,0 c 0.0972,0.62984 0.17168,1.13569 0.20278,1.47323 l 0,0 c 0,0 0,0 0,0 0.016,0.17355 0.0213,0.30936 0.014,0.40412 l 0,0 0,0 0,0 c -0.004,0.0479 -0.0106,0.0857 -0.0209,0.11312 0,0 0,0 0,0 -0.0126,0.0223 -0.0279,0.0367 -0.0462,0.0428 z"
         style="fill:#000000;stroke:none;stroke-width:0.26458332px;stroke-linecap:butt;stroke-linejoin:miter;stroke-opacity:1" />
    </g>
  </g>
</svg>
