<?xml version="1.0" encoding="UTF-8" standalone="no"?>
<!-- Created with Inkscape (http://www.inkscape.org/) -->

<svg
   xmlns:dc="http://purl.org/dc/elements/1.1/"
   xmlns:cc="http://creativecommons.org/ns#"
   xmlns:rdf="http://www.w3.org/1999/02/22-rdf-syntax-ns#"
   xmlns:svg="http://www.w3.org/2000/svg"
   xmlns="http://www.w3.org/2000/svg"
   xmlns:sodipodi="http://sodipodi.sourceforge.net/DTD/sodipodi-0.dtd"
   xmlns:inkscape="http://www.inkscape.org/namespaces/inkscape"
   width="210mm"
   height="297mm"
   viewBox="0 0 210 297"
   version="1.1"
   id="svg971"
   inkscape:version="0.92.4 (5da689c313, 2019-01-14)"
   sodipodi:docname="favicon.svg">
  <defs
     id="defs965" />
  <sodipodi:namedview
     id="base"
     pagecolor="#ffffff"
     bordercolor="#666666"
     borderopacity="1.0"
     inkscape:pageopacity="0.0"
     inkscape:pageshadow="2"
     inkscape:zoom="0.64"
     inkscape:cx="-382.76117"
     inkscape:cy="1720.6553"
     inkscape:document-units="mm"
     inkscape:current-layer="g889"
     showgrid="false"
     inkscape:window-width="1920"
     inkscape:window-height="1017"
     inkscape:window-x="-8"
     inkscape:window-y="-8"
     inkscape:window-maximized="1"
     inkscape:pagecheckerboard="true"
     showborder="false" />
  <metadata
     id="metadata968">
    <rdf:RDF>
      <cc:Work
         rdf:about="">
        <dc:format>image/svg+xml</dc:format>
        <dc:type
           rdf:resource="http://purl.org/dc/dcmitype/StillImage" />
        <dc:title></dc:title>
      </cc:Work>
    </rdf:RDF>
  </metadata>
  <g
     inkscape:label="Layer 1"
     inkscape:groupmode="layer"
     id="layer1">
    <g
       transform="matrix(0.3317031,0,0,0.3317031,232.84151,88.719016)"
       id="g891"
       style="fill:#000000">
      <g
         transform="translate(-517.95,134.013)"
         id="g889"
         style="fill:#000000">
        <g
           id="g1590">
          <path
             inkscape:connector-curvature="0"
             style="fill:#000000;stroke-width:8.86111546"
             id="path861"
             d="m -504.94199,-795.32194 c 1.61273,0.17722 1.0722,10.29662 2.36592,27.54035 a 166.4649,166.4649 0 0 0 17.36779,66.20139 107.85749,107.85749 0 0 0 51.16408,48.18674 l 1.44437,0.61142 a 120.90992,120.90992 0 0 0 73.34344,4.67866 181.38702,181.38702 0 0 0 59.83912,-27.46945 c 13.61066,-9.2067 20.80586,-15.59556 21.91352,-14.48792 0.78863,0.78863 -4.58121,9.02061 -17.3855,20.32739 a 158.92411,158.92411 0 0 1 -61.26576,33.67224 126.60762,126.60762 0 0 1 -81.83238,-3.78369 l -1.6659,-0.7089 a 115.26539,115.26539 0 0 1 -56.83519,-55.3288 150.91365,150.91365 0 0 1 -13.68157,-71.77503 c 0.88612,-17.92604 4.10271,-27.75301 5.21035,-27.62896 z"
             class="a" />
          <g
             style="fill:#000000"
             id="g885"
             transform="matrix(8.8611152,0,0,8.8611152,-756.61537,-1050.6549)">
            <path
               inkscape:connector-curvature="0"
               style="fill:#000000"
               id="path863"
               transform="translate(83.422,-10.891)"
               d="m -41.209,43.536 c -0.131,0.079 -1.032,-1.077 -2.223,-3.115 a 60.113,60.113 0 0 1 -3.954,-8.312 c -2.637,-6.73 -3.793,-12.454 -3.544,-12.525 0.31,-0.089 2.041,5.474 4.633,12.1 1.366,3.49 2.525,6.072 3.6,8.354 0.989,2.109 1.638,3.412 1.492,3.5 z"
               class="a" />
            <path
               inkscape:connector-curvature="0"
               style="fill:#000000"
               id="path865"
               transform="translate(92.514,-12.432)"
               d="m -60.021,25.571 c -0.009,0.145 -1.271,0.177 -3.3,0.214 -2.256,0.042 -4.592,0.083 -7.907,0.234 -6.173,0.281 -11.187,0.745 -11.223,0.441 -0.03,-0.254 4.939,-1.177 11.177,-1.46 a 69.182,69.182 0 0 1 7.973,0.064 c 2.038,0.147 3.287,0.37 3.278,0.506 z"
               class="a" />
            <path
               inkscape:connector-curvature="0"
               style="fill:#000000"
               id="path867"
               transform="translate(88.034,-14.473)"
               d="m -66.914,45.656 c -0.122,-0.078 0.311,-1.059 1.26,-2.5 a 35.692,35.692 0 0 1 4.262,-5.186 c 3.692,-3.779 7.224,-6.157 7.376,-5.976 0.1,0.119 -0.628,0.894 -1.849,2.09 -1.141,1.117 -3.014,2.89 -4.741,4.654 -1.916,1.957 -3.239,3.468 -4.426,4.88 -1.086,1.291 -1.747,2.121 -1.881,2.035 z"
               class="a" />
            <path
               inkscape:connector-curvature="0"
               style="fill:#000000"
               id="path869"
               transform="translate(96.383,-20.794)"
               d="m -95.848,54.011 c 0.031,-0.23 2.682,-0.175 5.917,0.305 3.235,0.48 5.785,1.308 5.709,1.6 -0.058,0.224 -2.664,-0.169 -5.852,-0.641 -3.208,-0.475 -5.815,-0.964 -5.774,-1.264 z"
               class="a" />
            <path
               inkscape:connector-curvature="0"
               style="fill:#000000"
               id="path871"
               transform="translate(96.599,-13.51)"
               d="M -81.579,42.915 C -81.81,43 -83,40.673 -84.4,36.864 a 67.407,67.407 0 0 1 -1.659,-7.643 q -0.489,1.118 -1.043,2.246 A 71.857,71.857 0 0 1 -93.32,41.68 c -1.791,2.466 -3.067,3.907 -3.253,3.776 -0.2,-0.144 0.777,-1.811 2.569,-4.429 1.528,-2.233 4.638,-6.527 6.8,-10.217 q 0.639,-1.089 1.2,-2.156 c 1.044,2.926 2.06,5.593 2.857,7.8 1.094,3.863 1.833,6.357 1.563,6.458 z"
               class="a" />
            <circle
               style="fill:#000000;stroke:none;stroke-width:0.66799998px"
               id="circle873"
               transform="translate(12.902,30.544)"
               r="4.4790001"
               cy="4.4790001"
               cx="4.4790001"
               class="b" />
            <path
               inkscape:connector-curvature="0"
               style="fill:#000000"
               id="path875"
               transform="translate(83.127,-10.475)"
               d="m -44.6,24.632 a 0.019,0.019 0 0 1 0,-0.015 v 0 a 0.094,0.094 0 0 1 0.018,-0.018 0.7,0.7 0 0 1 0.071,-0.046 v 0 c 0.067,-0.04 0.143,-0.082 0.257,-0.158 v 0 a 3.388,3.388 0 0 0 0.8,-0.751 v 0 a 8.139,8.139 0 0 0 1.593,-4.588 l -0.8,-0.067 c -0.893,-0.076 -1.722,-0.151 -2.516,-0.234 a 15.372,15.372 0 0 0 -2.7,-0.023 6.2,6.2 0 0 0 -1.15,0.2 c -0.594,0.173 -0.88,0.4 -0.919,0.362 -0.039,-0.038 0.174,-0.374 0.811,-0.655 a 5.061,5.061 0 0 1 1.2,-0.347 12.5,12.5 0 0 1 2.812,-0.125 c 0.861,0.133 1.77,0.285 2.742,0.453 l 0.872,0.151 c -0.122,2.423 -0.67,4.055 -1.657,5.126 v 0 a 2.747,2.747 0 0 1 -1,0.682 v 0 a 1.206,1.206 0 0 1 -0.318,0.076 v 0 a 0.344,0.344 0 0 1 -0.089,0 0.084,0.084 0 0 1 -0.025,-0.009 v 0 a 0.021,0.021 0 0 1 -0.011,-0.013 z"
               class="a" />
            <path
               inkscape:connector-curvature="0"
               style="fill:#000000"
               id="path877"
               transform="translate(93.58,-9.933)"
               d="m -83.635,22.96 c -0.163,0.06 -0.849,-1.391 -1.53,-3.238 -0.681,-1.847 -1.1,-3.4 -0.94,-3.456 0.16,-0.056 0.849,1.391 1.53,3.238 0.681,1.847 1.1,3.4 0.94,3.456 z"
               class="a" />
            <path
               inkscape:connector-curvature="0"
               style="fill:#000000;stroke:none;stroke-width:0.50099999px"
               id="path879"
               transform="translate(151.582,-13.097)"
               d="m -149.657,18.778 c 0,0 -0.292,-0.562 0.4,-0.7 a 40.734,40.734 0 0 1 6.267,0.022 c 0,0 5.638,-0.606 5.211,0.854 0,0 -4.9,-0.741 -7.974,0.449 z"
               class="c" />
          </g>
          <path
             inkscape:connector-curvature="0"
             style="fill:#000000;stroke-width:8.86111546"
             id="path887"
             d="m -882.48752,-794.59533 c 1.6127,0.17722 1.0722,10.29661 2.3659,27.54035 a 166.4649,166.4649 0 0 0 17.3678,66.20139 107.85749,107.85749 0 0 0 51.16409,48.18674 l 1.44436,0.61142 a 120.90992,120.90992 0 0 0 73.34345,4.67866 181.38702,181.38702 0 0 0 59.83911,-27.46945 c 13.61067,-9.2067 20.8059,-15.59557 21.91353,-14.48793 0.78864,0.78864 -4.58119,9.02062 -17.3855,20.3274 a 158.92411,158.92411 0 0 1 -61.26575,33.67224 126.60762,126.60762 0 0 1 -81.8324,-3.7837 l -1.66589,-0.70889 a 115.26539,115.26539 0 0 1 -56.8352,-55.3288 150.91365,150.91365 0 0 1 -13.6816,-71.77503 c 0.8862,-17.92604 4.1027,-27.75302 5.2104,-27.62896 z"
             class="a" />
        </g>
      </g>
    </g>
  </g>
</svg>
