<svg xmlns="http://www.w3.org/2000/svg" width="500" height="554.067" viewBox="0 0 599 554.067"><defs><style>.a{fill:blue;}.b,.d{fill:navy;}.c{fill:#00faff;}.d{stroke:#000;stroke-width:0.265px;}.e{fill:aqua;}.f{fill:#f0ad00;}.g{fill:#ff0;}.h{fill:#7ed600;}.i{fill:#fff;}.j{fill:#333;}.k{fill:#e6e6e6;opacity:0.628;}.l{fill:#1a1a1a;}</style></defs><g transform="translate(112.196 1.044)"><path class="a" d="M461.582,165.751s74.617,34.494,94.281,79.8c0,0,35.774,82.779,39.4,91.631,0,0,49.6,111.023,41.9,147.865l-1.546,38.271L595.963,519.3s-137.2-23.535-217.927-72.871L276.154,424.321s3.2-.319-4.485-5.128a201.484,201.484,0,0,0-21.788-9.289,127.076,127.076,0,0,1-20.914-17.922l15.485-66.013L393.427,166.1Z" transform="translate(-151.174 4.982)"/><path class="b" d="M240.41,262.629,334.2,284.376s7.082,20.2-1.245,24.467c-8.852,4.562-30.026,4.279-30.026,4.279L266.123,310.9h0Z" transform="translate(110.611 239.899)"/><path class="c" d="M489.325,202.345s36.7,81.1,22.2,102.85c-5.671,8.5-39.421-26.279-39.421-26.279s-4.987,33.98-9.967,45.759-33.048-41.233-33.048-41.233-4.987,45.76-17.669,53.467c2.266,10.422-32.623-34.435-32.623-34.435s-1.812-8.61-16.311,48.934c-10.422,7.7-42.414-41.31-42.414-41.31l-20.566-57.037,16.311-28.545,82.915-26.279L451.745,185.1Z" transform="translate(-269.698 51.893)"/><g transform="translate(15.001 113.938)"><path class="b" d="M231.525,315.815s5.766,76.571,33.319,116.936c0,0-2.561-32.676-2.561-42.933s14.488,18.082,20.891,19.362,8.581-48.2,8.581-48.2,8.97,30.02,14.1,35.143,17.94-24.255,16.016-33.862,2.561,19.221,17.3,29.477,14.1-35.88,14.1-35.88,14.754,23.068,23.706,26.273,9.613-35.881,9.613-35.881,15,30.988,31.661,38.678a71.75,71.75,0,0,0,11.909-42.525c-.643-5.128,31.224,32.5,31.7,21.77a167.039,167.039,0,0,0-6.716-46.12s45.653,39.085,41.652,20.5a365.274,365.274,0,0,0-13.615-42.933,66.957,66.957,0,0,0,32.2,18.584c17.94,3.2-8.327-45.494-8.327-45.494s25.63,19.221,42.933,19.864-25.081-47.117-25.081-47.117L450.03,190.546" transform="translate(-229.494 -184.674)"/><path class="d" d="M265.765,321.79l-3.842-16.978,16.016-37.8,48.7-48.055,79.456-29.477,50.622-.643,25.742,5.9" transform="translate(-261.923 -188.831)"/></g><g transform="translate(0 0)"><path class="e" d="M495.909,275.378a19.858,19.858,0,0,1-24.06,7.082,177.493,177.493,0,0,1-19.032-7.7s11.325,18.578,24.467,25.376c3.541,5.518-26.279,12.688-40.779,5.9a150.607,150.607,0,0,1-17.669-6.344c-4.078-2.266,16.524,21.31,15.857,34.889-.319,6.545-43.948-14.954-43.948-14.954s16.311,26.279,11.325,41.233-54.37-38.949-54.37-38.949L261.924,165.718l.266-10.156" transform="translate(-260.378 -155.562)"/><path class="e" d="M262.453,156.09s134.658,20.165,195.271,89.064c0,0,8.97,14.1,38.448,30.758" transform="translate(-262.453 -154.284)"/></g></g><g transform="translate(237.193 412.082)"><path class="f" d="M303.7,254.176l5.128,10.251A18.2,18.2,0,0,1,321,270.192a355.125,355.125,0,0,1,22.048,36.37,27.376,27.376,0,0,0,9.967-5.435c2.721-3.169-.454,13.573,15.4,25.376s-1.357-14.045,12.234-33.048c0,0,10.876,21.292,24.921,30.811S392,307.955,392,295.267s-1.812-34.889-1.812-34.889l-59.356-24.467Z" transform="translate(-303.7 -235.911)"/></g><g transform="translate(89.022 80.813)"><path d="M387.679,270.544a54.845,54.845,0,0,1-10.251-23.069,34.422,34.422,0,0,0-10.251,13.137V249.081h0s-2.886,10.575-5.128,10.894c0,0-11.213-17.622-7.371-27.872l11.531-19.545a26.2,26.2,0,0,1-9.613-.319l62.8-73.048,16.66,68.562Z" transform="translate(-353.877 -139.191)"/></g><g transform="translate(51.364 21.928)"><path class="g" d="M445.493,143.723s26.35-3.128,55.686,19.87c0,0-5.211,6.232-7.813,6.911,0,0-.678,5.311,13.709,12.121a24.608,24.608,0,0,1-10.988,15.969s8.852,3.441,13.325,4.721a32.609,32.609,0,0,1-12.175,9.932s5.128-2.243,13.455,7.371c0,0-7.672,18.259-14.754,21.463,1.924,1.281,4.166-1.28,9.289,1.281,0,0-7.371,8.333-13.137,8.008h0s7.182,20.525-18.129,33.98c0,0-59.4,2.219-57.479,60.849,0,0-12.464-3.659-6.409-33.963,0,0,38.979-66.167,36.205-102.2-1.092-14.163-1.18-4.88-20.212-37.5L338.63,122Z" transform="translate(-338.63 -122)"/></g><g transform="translate(11.034)"><path class="h" d="M357.666,163.557a66.744,66.744,0,0,1,24.414-31.277c15.857-11.36,41.516-19.664,78.565-15.662a49.851,49.851,0,0,1,17.621,7.371s-14.924,2.791-17.887,2.791c.59.478,24.857,4.568,30.138,8.262a11.8,11.8,0,0,1-4.308,8.746s14.8,14.641,18.649,15.444Z" transform="translate(-357.666 -115.597)"/></g><g transform="translate(7.857 20.155)"><path class="i" d="M361.522,164.5a16.027,16.027,0,0,1-1.629-11.455,64.763,64.763,0,0,1,10.54-12.062c3.541-2.119,9.666-10.41,21.894-.891,0,0,26.279-22.03,48.026-15.686,0,0,15.178-10.192,36.246,7.477,0,0,17.669,13.573,22.88,14.27,0,0-5.435,15.633-7.931,16.99a20.9,20.9,0,0,1,8.38,8.156s-7.022,1.812-9.513,2.49c0,0,28.327,29.678,2.042,40.324-23.222,9.684-14.163,6.137-20.732,10.139,0,0,2.6,7.985-3.966,8.663s-49.613-27.866-49.613-27.866a14,14,0,0,1,1.947-20.165Z" transform="translate(-359.478 -121.479)"/></g><g transform="translate(26.165 24.383)"><ellipse class="j" cx="10.758" cy="10.251" rx="10.758" ry="10.251" transform="translate(65.865 2.095)"/><ellipse class="k" cx="9.666" cy="9.212" rx="9.666" ry="9.212" transform="translate(67.016 3.01)"/><ellipse class="j" cx="4.125" cy="4.585" rx="4.125" ry="4.585" transform="translate(70.793 5.984)"/><path class="l" d="M371.479,134.153c-.036.077-.047.071,0,.142l.118.189h0a6.755,6.755,0,0,0,.543.667h0a25.611,25.611,0,0,0,2.431,2.266h0a53.366,53.366,0,0,0,10.109,6.444,58.9,58.9,0,0,0,10.28,3.93c15.225,4.249,27.341,1.021,27.182-.218s-12.127-.431-25.925-4.29a92.954,92.954,0,0,1-9.779-3.334c-4.178-1.688-8.061-3.594-10.5-4.721h0a23.019,23.019,0,0,0-3.092-1.251h0a2.839,2.839,0,0,0-.921-.148h0a.589.589,0,0,0-.277.071.425.425,0,0,0-.171.236Z" transform="translate(-337.286 -95.776)"/><path class="l" d="M362.842,141.395c.189.9,4.892.72,11.266-.307h0c1.853-.112,3.842-.195,5.9-.207,9.189-.047,16.453,1.965,16.9.856s-6.669-5.229-17.073-5.17a41.743,41.743,0,0,0-6.4.531h0c-6.415,1.664-10.817,3.393-10.622,4.3Z" transform="translate(-282.482 -89.126)"/><path class="l" d="M373.552,133.836a.324.324,0,0,0,.035.195h0a.638.638,0,0,0,.148.171h0a2.5,2.5,0,0,0,.59.342h0a17.261,17.261,0,0,0,2.266.726h0c1.918.513,4.6,1.121,7.672,1.971,1.77.5,3.641,1.062,5.583,1.77,8.722,3.039,14.718,7.625,15.421,6.869s-4.5-7.029-14.163-10.416a42.116,42.116,0,0,0-6.019-1.611,37.172,37.172,0,0,0-8.214-.708h0a13.861,13.861,0,0,0-2.4.271h0a3.066,3.066,0,0,0-.643.212h0a.856.856,0,0,0-.177.112h0a.171.171,0,0,0-.077.13Z" transform="translate(-327.675 -97.43)"/><path class="l" d="M363.727,141.405a.3.3,0,0,0,.271-.03h0a2.551,2.551,0,0,0,.4-.254h0c.313-.224.72-.561,1.257-.956h0a21.153,21.153,0,0,1,4.981-2.75h0a32.584,32.584,0,0,1,8.6-2.148c9.253-1.1,17.48.307,17.645-.59A28.834,28.834,0,0,0,378.834,132a27.2,27.2,0,0,0-9.4,2.874h0a13.975,13.975,0,0,0-4.951,4.178h0a5.625,5.625,0,0,0-.8,1.582h0a1.593,1.593,0,0,0-.071.5h0a.3.3,0,0,0,.118.266Z" transform="translate(-285.174 -101.317)"/><path class="l" d="M379.05,134.788a8.185,8.185,0,0,0-6.09-.449,8.3,8.3,0,0,0-2.821,1.18h0a3.045,3.045,0,0,0-1.34,3.086c.3.183,1.033-1.375,2.178-1.676h0a9.947,9.947,0,0,1,2.36-.8C376.353,135.526,379.079,135.532,379.05,134.788Z" transform="translate(-284.958 -95.497)"/><path class="l" d="M387.766,151.964a1.876,1.876,0,0,0,1.1-.378,11.167,11.167,0,0,0,1.629-1.245,15.7,15.7,0,0,0,3.694-5.176,16.793,16.793,0,0,0,1.3-5.96,16.082,16.082,0,0,0-5.641-13.986,105,105,0,0,1,2.36,13.88,16.129,16.129,0,0,1-.885,4.951,25.728,25.728,0,0,1-2.36,5.01c-.419.714-.72,1.18-.974,1.706S387.566,151.882,387.766,151.964Z" transform="translate(-366.274 -116.638)"/><path class="l" d="M387.781,142.44a1.834,1.834,0,0,0-.206-1.18h0a17.167,17.167,0,0,1-.667-2.839,27.763,27.763,0,0,1-.342-4.975c.071-5.075.991-9.33.106-9.548a13.619,13.619,0,0,0-2.762,9.525,16.721,16.721,0,0,0,.856,5.553,7.342,7.342,0,0,0,1.77,2.951h0c.59.59,1.1.673,1.233.507Z" transform="translate(-345.445 -119.838)"/><path class="l" d="M387.851,149.407a.23.23,0,0,0,0-.242h0a2.221,2.221,0,0,0-.159-.384h0c-.154-.307-.39-.714-.673-1.233h0a21.675,21.675,0,0,1-1.859-4.5h0a25.142,25.142,0,0,1-.992-6.291c-.266-7.265,1.67-13.485.974-13.715a20.457,20.457,0,0,0-3.612,13.821,21.126,21.126,0,0,0,1.44,6.952h0a13.088,13.088,0,0,0,2.951,4.579h0a5.46,5.46,0,0,0,1.234.921h0a1.5,1.5,0,0,0,.413.147h0c.118,0,.2,0,.248-.047Z" transform="translate(-337.206 -121.925)"/><path class="l" d="M387.332,152.487a.437.437,0,0,0,.071-.384h0a2.569,2.569,0,0,0-.26-.59h0a21.2,21.2,0,0,0-1.18-1.806h0a29.651,29.651,0,0,1-3.116-5.742h0a19.668,19.668,0,0,1-1.269-5.778,19.147,19.147,0,0,1,0-2.667h0a57.962,57.962,0,0,1,3.482-12.806,17.421,17.421,0,0,0-5.9,12.5h0a19.741,19.741,0,0,0-.053,3.2,19.208,19.208,0,0,0,1.7,6.8h0a18.3,18.3,0,0,0,4.131,5.724h0a11.669,11.669,0,0,0,1.629,1.263h0a3.853,3.853,0,0,0,.49.26h0c.195.083.165.089.224,0Z" transform="translate(-328.649 -122.714)"/><path class="l" d="M396.428,131.026c0-.047-.047-.088-.136-.136h0a1.659,1.659,0,0,0-.336-.112,7.8,7.8,0,0,0-1.181-.159h0a20.892,20.892,0,0,0-3.877.13h0c-.525.059-1.086.13-1.658.236-4.19.755-6.751,3.081-6.244,3.541a63.125,63.125,0,0,1,6.492-2.184l1.6-.289h0c1.469-.248,2.768-.419,3.724-.59h0a11.669,11.669,0,0,0,1.18-.23,1.866,1.866,0,0,0,.33-.112h0c.089-.041.13-.083.13-.13Z" transform="translate(-350.917 -103.638)"/><path class="l" d="M394.3,127.562l-1.853,5.052,11.083,7.8,1.853-5.052Z" transform="translate(-392.448 -110.961)"/><path class="l" d="M389.855,147.2a2.886,2.886,0,0,0-.207-1.5h0a26.672,26.672,0,0,1-.667-3.6,44.349,44.349,0,0,1-.343-6.3c.071-6.427,1-11.8.106-12.092a20.306,20.306,0,0,0-2.762,12.062,26.364,26.364,0,0,0,.856,7.029,9.976,9.976,0,0,0,1.771,3.765h0C389.2,147.291,389.725,147.409,389.855,147.2Z" transform="translate(-354.565 -120.316)"/></g><g transform="translate(0 56.729)"><g transform="translate(0 0)"><path class="l" d="M408.919,306.668s-99.5-38.648-52.558-134.811c0,0,38.6,6.356,55.9,26.863,0,0-64.732,48.787-3.346,107.948Z" transform="translate(-343.775 -171.856)"/></g><path class="l" d="M369.949,193.4c29.289,16.247,48.073,14.287,64.225,10.133,2.254-.59,14.754-7.926,14.612-17.669-.136-8.309-5.9-15.621-11.313-22.614a129.554,129.554,0,0,0-19.723-21.334s-7.247,9.967-16.524,9.289c-6.114,13.142-1.428,25.683-8.156,29.365a51.388,51.388,0,0,1-21.387,2.561Z" transform="translate(-332.63 -108.505)"/></g></svg>