<svg xmlns="http://www.w3.org/2000/svg" width="39.88" height="31.018" viewBox="0 0 39.88 31.018"><defs><style>.a{fill:white;}</style></defs><path class="a" d="M39.88,44.737v1.108a1.662,1.662,0,0,1-1.662,1.662h-.554L35.857,60.162a3.323,3.323,0,0,1-3.29,2.853H7.313a3.323,3.323,0,0,1-3.29-2.853L2.216,47.506H1.662A1.662,1.662,0,0,1,0,45.845V44.737a1.662,1.662,0,0,1,1.662-1.662H6.324L13.717,32.91A2.216,2.216,0,0,1,17.3,35.516l-5.5,7.559H28.077l-5.5-7.559a2.216,2.216,0,0,1,3.584-2.606l7.393,10.166h4.662A1.662,1.662,0,0,1,39.88,44.737ZM21.6,56.923V49.168a1.662,1.662,0,0,0-3.323,0v7.755a1.662,1.662,0,0,0,3.323,0Zm7.755,0V49.168a1.662,1.662,0,0,0-3.323,0v7.755a1.662,1.662,0,0,0,3.323,0Zm-15.509,0V49.168a1.662,1.662,0,0,0-3.323,0v7.755a1.662,1.662,0,0,0,3.323,0Z" transform="translate(0 -31.997)"/></svg>